<?xml version="1.0" standalone="no"?>
<!DOCTYPE svg PUBLIC "-//W3C//DTD SVG 20010904//EN"
 "http://www.w3.org/TR/2001/REC-SVG-20010904/DTD/svg10.dtd">
<svg version="1.0" xmlns="http://www.w3.org/2000/svg"
 width="300.000000pt" height="300.000000pt" viewBox="0 0 300.000000 300.000000"
 preserveAspectRatio="xMidYMid meet">
<metadata>
Created by potrace 1.10, written by Peter Selinger 2001-2011
</metadata>
<g transform="translate(0.000000,300.000000) scale(0.050000,-0.050000)"
fill="#ff0000" stroke="none">
<path d="M25 5987 c-20 -8 -25 -622 -25 -2976 l0 -2966 62 -13 c35 -6 1376
-12 2980 -12 l2918 0 0 2990 0 2990 -2955 -2 c-1625 0 -2966 -6 -2980 -11z
m5850 -2982 l5 -2885 -2885 -5 c-1587 -3 -2892 -2 -2900 1 -8 4 -15 1306 -15
2895 l0 2889 2895 -5 2895 -5 5 -2885z"/>
<path d="M1130 5715 c-6 -25 -9 -189 -6 -365 l6 -320 120 6 c166 9 181 16 231
100 111 185 58 522 -92 593 -104 49 -246 42 -259 -14z m263 -100 c164 -186 88
-495 -122 -495 l-71 0 0 270 0 270 77 0 c54 0 88 -13 116 -45z"/>
<path d="M1596 5408 c-7 -412 -17 -383 134 -380 108 2 121 6 126 47 6 42 -1
45 -95 45 l-101 0 0 110 0 110 98 0 c63 0 101 9 108 27 20 52 -18 77 -108 70
l-88 -6 -6 114 -6 115 101 0 c94 0 101 3 101 50 0 48 -5 50 -129 50 l-129 0
-6 -352z"/>
<path d="M2116 5408 c-7 -392 -14 -372 147 -379 163 -6 185 84 22 95 l-95 6
-6 105 -6 105 99 0 c97 0 127 21 108 75 -5 15 -46 25 -107 25 l-98 0 0 110 0
110 100 0 c93 0 100 3 100 50 0 48 -5 50 -129 50 l-129 0 -6 -352z"/>
<path d="M2480 5695 c-22 -36 -40 -99 -40 -142 0 -77 7 -86 175 -232 55 -48
58 -121 7 -184 -43 -53 -122 -11 -122 65 0 43 -36 70 -61 45 -47 -47 71 -247
145 -247 67 0 136 119 135 233 0 130 -19 166 -118 221 -81 45 -106 103 -74
168 34 67 78 60 112 -17 31 -70 68 -77 76 -13 10 71 -68 168 -135 168 -47 0
-70 -15 -100 -65z"/>
<path d="M2734 5732 c-14 -38 8 -72 48 -72 21 0 38 -11 39 -25 0 -14 2 -155 5
-315 4 -258 8 -290 39 -296 32 -6 35 19 35 315 0 337 -4 322 85 329 18 1 25
-64 25 -259 0 -278 18 -340 112 -390 53 -28 137 3 178 67 50 76 56 680 7 671
-34 -7 -38 -36 -47 -313 -10 -310 -19 -343 -94 -344 -66 -1 -86 85 -86 370 l0
281 -169 2 c-108 1 -172 -6 -177 -21z"/>
<path d="M3409 5734 c-6 -14 -8 -178 -5 -365 l6 -339 83 -6 c257 -19 396 286
267 585 -54 126 -315 219 -351 125z m254 -109 c160 -192 66 -524 -148 -525
l-55 0 0 280 0 280 87 0 c58 0 96 -12 116 -35z"/>
<path d="M3858 5752 c-30 -31 -4 -722 28 -728 31 -6 34 26 34 365 0 358 -10
415 -62 363z"/>
<path d="M4104 5729 c-143 -101 -174 -471 -52 -622 188 -232 473 21 409 364
-45 245 -207 362 -357 258z m189 -78 c193 -135 97 -611 -109 -539 -208 73
-177 568 36 568 17 0 50 -13 73 -29z"/>
<path d="M4548 5709 c-72 -109 -38 -270 73 -340 92 -58 119 -132 76 -208 -40
-72 -81 -64 -123 27 -27 57 -43 71 -59 55 -36 -36 7 -163 70 -210 l55 -41 55
41 c144 106 127 337 -30 423 -73 41 -85 56 -85 113 0 120 107 142 124 26 8
-52 52 -69 68 -27 53 139 -144 263 -224 141z"/>
<path d="M1100 3009 l0 -1871 845 6 845 7 170 56 c410 137 748 460 907 865 25
65 159 342 297 616 l252 497 -48 103 c-26 56 -48 114 -48 129 0 57 -45 7 -79
-88 -20 -54 -105 -252 -190 -439 -84 -187 -212 -472 -284 -632 -283 -635 -686
-936 -1257 -938 -963 -2 -1598 1146 -1094 1978 369 609 1080 820 1699 505 l83
-43 -77 -165 c-117 -255 -170 -372 -241 -535 -263 -604 -385 -738 -519 -567
-91 117 7 327 154 327 56 0 96 81 53 106 -42 24 -177 -20 -234 -78 -280 -280
68 -738 370 -488 71 59 95 101 252 440 33 72 111 238 174 370 63 132 204 434
314 670 110 237 236 499 279 583 l80 153 -40 77 c-21 42 -40 85 -41 95 -1 11
202 18 493 16 l495 -2 10 -1216 11 -1216 -257 -570 c-141 -314 -262 -581 -268
-595 -7 -18 20 -25 103 -25 112 0 113 1 143 75 69 170 327 723 361 774 22 32
27 310 27 1465 l0 1426 -1870 0 -1870 0 0 -1871z m2533 1745 c5 -5 -25 -80
-66 -167 -109 -231 -158 -338 -239 -527 -41 -93 -77 -174 -81 -178 -4 -5 -50
14 -102 42 -159 85 -339 130 -585 146 -462 31 -1051 -303 -1242 -704 -32 -68
-68 -130 -79 -136 -18 -12 -29 1513 -11 1532 12 11 2394 3 2405 -8z m-2318
-2890 c78 -161 336 -417 510 -505 189 -97 179 -101 -230 -94 l-365 5 -5 366
c-6 400 -1 415 90 228z"/>
<path d="M5145 4858 c-73 -21 -134 -117 -115 -178 53 -166 337 -162 423 6 40
78 61 93 130 94 106 0 126 -102 28 -140 -52 -19 -66 -49 -33 -69 101 -62 218
118 141 216 -71 90 -319 82 -319 -10 0 -51 -102 -157 -152 -157 -140 0 -180
120 -57 172 113 47 75 100 -46 66z"/>
<path d="M373 4832 c-230 -102 -221 -281 18 -371 316 -118 688 105 489 292
-107 101 -365 141 -507 79z m387 -89 c92 -43 98 -128 14 -191 -82 -61 -326
-61 -408 0 -205 152 130 315 394 191z"/>
<path d="M5107 4477 c-94 -46 -113 -185 -35 -259 82 -77 724 -93 677 -16 -6
10 -123 18 -259 18 -336 0 -443 50 -351 163 36 45 48 47 324 47 242 0 287 5
287 30 0 37 -571 52 -643 17z"/>
<path d="M3762 4335 c-26 -69 -149 -345 -273 -615 -124 -269 -316 -687 -427
-929 -239 -517 -238 -517 -357 -592 -175 -111 -408 -60 -578 126 -298 324 -43
835 415 835 85 0 100 5 94 35 -9 46 -81 55 -216 25 -718 -160 -623 -1212 110
-1209 373 2 387 21 1011 1359 93 198 224 472 292 609 l123 249 -53 116 c-67
145 -82 144 -141 -9z"/>
<path d="M310 4383 c-143 -87 -140 -219 6 -300 235 -130 624 -35 624 151 0 65
-102 166 -168 166 -69 0 -66 -28 9 -81 127 -90 30 -211 -185 -232 -219 -21
-388 142 -237 228 60 35 85 105 36 105 -14 0 -52 -17 -85 -37z"/>
<path d="M3941 4045 c-15 -41 -112 -264 -216 -495 -735 -1631 -680 -1529 -877
-1622 -647 -306 -1323 386 -1014 1038 150 315 499 505 811 440 117 -24 135
-20 135 33 0 109 -461 74 -675 -51 -883 -517 -295 -1909 679 -1608 323 99 394
189 756 950 47 99 193 400 324 669 l239 489 -46 116 c-54 135 -79 144 -116 41z"/>
<path d="M5031 4065 c-18 -47 -3 -52 154 -54 l145 -1 6 -80 c11 -145 222 -210
351 -109 59 47 82 259 28 259 -14 -1 -171 3 -349 8 -279 7 -325 4 -335 -23z
m629 -98 c0 -152 -197 -178 -239 -32 -23 80 -16 85 122 85 113 0 117 -2 117
-53z"/>
<path d="M555 3985 c-280 -5 -335 -11 -335 -36 0 -38 702 -34 714 4 12 35 -21
37 -379 32z"/>
<path d="M592 3882 c-36 -59 -19 -232 23 -238 41 -6 45 1 45 85 0 104 17 111
116 50 153 -92 31 -229 -203 -229 -244 0 -349 103 -222 220 85 77 79 119 -12
87 -231 -81 -164 -304 111 -368 66 -15 43 -33 -73 -57 -75 -16 -177 -118 -177
-177 0 -134 171 -224 406 -212 389 20 454 330 84 408 -70 14 -42 36 74 57 128
23 215 169 150 254 -56 72 -297 163 -322 120z m186 -538 c171 -127 -98 -302
-340 -221 -262 88 -136 286 170 267 77 -4 136 -20 170 -46z"/>
<path d="M4090 3728 c-16 -40 -30 -75 -30 -78 0 -4 -271 -594 -446 -972 -28
-59 -70 -153 -95 -208 -245 -552 -312 -645 -560 -770 -874 -443 -1785 493
-1357 1395 213 449 902 723 1259 500 45 -28 105 -2 115 51 29 144 -663 144
-956 1 -1071 -524 -699 -2189 490 -2194 540 -2 821 220 1159 915 113 232 291
597 395 811 l190 390 -47 88 c-26 49 -47 101 -47 116 0 52 -40 26 -70 -45z"/>
<path d="M5040 3570 c0 -137 4 -150 40 -150 35 0 40 13 40 110 l0 110 120 0
120 0 0 -110 c0 -97 5 -110 40 -110 35 0 40 13 40 110 l0 110 110 0 110 0 0
-110 c0 -97 5 -110 40 -110 36 0 40 13 40 150 l0 150 -350 0 -350 0 0 -150z"/>
<path d="M5034 3332 c-19 -48 4 -52 319 -52 l307 0 0 -60 c0 -80 -63 -140
-146 -140 -77 0 -114 30 -114 94 0 59 -23 58 -187 -11 -160 -68 -213 -111
-178 -146 18 -18 51 -9 140 39 l118 62 54 -54 c151 -151 399 -46 389 165 l-6
121 -343 5 c-281 5 -344 1 -353 -23z"/>
<path d="M4370 2945 c-32 -74 -106 -238 -166 -365 -59 -126 -135 -288 -168
-360 -167 -359 -208 -441 -290 -567 -103 -160 -352 -414 -443 -452 -74 -30
-89 -93 -18 -74 25 7 127 13 227 13 l182 0 115 170 c116 174 187 316 549 1102
l204 442 -55 113 c-69 141 -66 141 -137 -22z"/>
<path d="M853 3047 c-7 -8 -13 -39 -13 -70 l0 -57 -311 0 c-286 0 -311 -3
-305 -35 4 -19 18 -34 31 -33 14 1 168 3 343 5 l318 3 7 79 c11 111 -20 158
-70 108z"/>
<path d="M5030 2920 c-31 -50 25 -59 366 -55 299 4 354 10 354 35 0 37 -697
57 -720 20z"/>
<path d="M402 2800 c-89 -21 -168 -82 -191 -148 -81 -226 460 -348 670 -151
190 178 -134 380 -479 299z m312 -64 c178 -76 169 -195 -21 -256 -187 -60
-459 56 -389 165 66 101 277 148 410 91z"/>
<path d="M5253 2792 c-274 -76 -310 -377 -59 -485 85 -36 332 -35 402 1 360
187 68 599 -343 484z m273 -79 c186 -79 186 -267 0 -346 -178 -75 -406 20
-410 171 -5 152 228 252 410 175z"/>
<path d="M4555 2620 c-316 -698 -574 -1214 -677 -1353 -100 -135 -104 -127 80
-127 l157 0 25 65 c23 58 80 189 331 755 41 94 110 245 152 337 l78 166 -49
134 -48 133 -49 -110z"/>
<path d="M210 2340 c-23 -37 50 -45 283 -31 232 14 287 -4 141 -46 -468 -138
-514 -194 -170 -208 372 -16 466 -11 466 25 0 25 -39 30 -233 30 -304 0 -305
8 -6 109 147 51 248 95 243 108 -10 31 -706 43 -724 13z"/>
<path d="M5040 2210 c-44 -53 -7 -60 307 -60 l303 0 6 -62 c4 -38 -7 -76 -26
-95 -80 -80 -230 -57 -230 35 0 27 -8 54 -17 60 -26 16 -328 -121 -349 -159
-37 -67 18 -68 142 -4 l125 65 35 -45 c131 -171 404 -67 404 154 l0 121 -308
0 c-170 0 -322 5 -337 11 -16 6 -40 -3 -55 -21z"/>
<path d="M330 1989 c-257 -131 -103 -369 240 -369 338 0 498 242 246 372 -97
50 -125 1 -39 -69 133 -110 24 -233 -207 -233 -226 0 -347 132 -211 229 102
73 81 126 -29 70z"/>
<path d="M4781 1717 c-75 -173 -167 -362 -225 -463 -31 -53 -56 -100 -56 -105
0 -5 77 -9 170 -9 l170 0 0 247 c0 136 6 289 13 340 17 125 -16 120 -72 -10z"/>
<path d="M5040 1660 c0 -127 4 -140 40 -140 22 0 41 11 42 25 1 14 3 61 5 105
l3 80 110 0 110 0 6 -116 c9 -168 71 -159 80 12 l6 116 104 -6 104 -6 6 -105
c5 -87 12 -105 43 -105 48 0 52 15 44 160 l-7 120 -348 0 -348 0 0 -140z"/>
<path d="M230 1575 c-26 -72 1 -445 32 -451 19 -3 37 11 43 34 10 39 29 41
318 46 257 5 307 11 307 36 0 25 -48 30 -310 30 -306 0 -310 1 -316 45 l-7 45
310 0 309 0 8 95 c15 165 -64 216 -84 55 l-10 -80 -110 0 -110 0 0 70 c0 57
-8 71 -45 76 -40 6 -45 -2 -45 -76 l0 -82 -105 6 -105 6 -6 85 c-6 83 -53 121
-74 60z"/>
<path d="M5167 1466 c-169 -32 -193 -232 -36 -298 139 -58 248 -23 318 103 53
94 90 119 156 102 94 -24 86 -123 -11 -137 -61 -8 -56 -65 7 -72 114 -13 201
130 133 218 -97 127 -284 98 -362 -56 -40 -81 -97 -112 -172 -96 -103 23 -97
139 6 154 28 4 44 20 44 44 0 42 -18 51 -83 38z"/>
<path d="M2508 962 c-246 -150 -175 -722 89 -722 112 0 256 165 184 209 -10 7
-39 -15 -64 -48 -83 -113 -174 -104 -240 25 -136 266 56 593 233 399 84 -91
135 -71 81 34 -64 123 -181 166 -283 103z"/>
<path d="M2987 976 c-10 -14 -49 -152 -85 -306 -37 -154 -75 -310 -86 -346
-11 -37 -15 -72 -9 -78 26 -26 70 16 83 78 28 140 26 139 126 132 l92 -6 21
-100 c15 -68 32 -102 56 -106 47 -9 47 -9 -46 373 -81 334 -113 411 -152 359z
m70 -286 c29 -125 21 -150 -47 -150 -62 0 -74 22 -51 93 10 31 23 82 30 112
18 84 39 66 68 -55z"/>
<path d="M4524 950 c-169 -142 -174 -541 -9 -671 57 -44 178 -51 225 -13 50
39 120 137 120 167 0 42 -76 32 -100 -13 -143 -267 -393 87 -255 361 68 134
140 152 225 54 99 -115 171 -87 88 34 -91 133 -198 162 -294 81z"/>
<path d="M1135 968 c-19 -19 -17 -676 3 -706 25 -38 214 -15 267 32 162 148
129 602 -49 664 -66 24 -202 30 -221 10z m198 -97 c188 -54 130 -531 -64 -531
l-69 0 0 267 c0 275 5 299 59 285 17 -5 50 -14 74 -21z"/>
<path d="M1565 615 l5 -365 120 0 c166 0 199 83 36 94 l-96 6 -6 105 -6 105
101 0 c94 0 101 3 101 50 0 47 -7 50 -101 50 l-101 0 6 105 6 105 95 6 c86 6
95 11 95 55 0 47 -5 49 -130 49 l-131 0 6 -365z"/>
<path d="M2065 615 l5 -365 125 -6 c121 -6 125 -5 125 44 0 45 -9 50 -94 56
l-95 6 0 100 0 100 90 10 c138 16 143 95 5 104 l-96 6 1 100 0 100 95 6 c85 6
94 11 94 55 0 47 -5 49 -130 49 l-131 0 6 -365z"/>
<path d="M3170 961 c-18 -31 12 -78 54 -85 39 -6 41 -20 44 -316 2 -261 7
-310 32 -310 25 0 30 49 33 307 l2 306 55 29 c30 15 57 28 59 28 3 0 4 -151 3
-335 l-2 -335 118 -6 c120 -6 159 14 138 69 -6 17 -43 27 -98 27 l-88 0 0 110
0 110 88 0 c86 0 116 23 97 75 -5 15 -44 25 -97 25 l-88 0 0 110 0 110 88 0
c85 0 130 35 102 81 -14 22 -526 22 -540 0z"/>
<path d="M3775 965 c-26 -52 -3 -715 25 -715 23 0 31 32 36 145 6 140 8 145
56 145 141 0 212 278 99 391 -48 48 -197 72 -216 34z m184 -114 c41 -49 18
-177 -38 -204 -70 -35 -81 -19 -81 114 0 126 55 167 119 90z"/>
<path d="M4094 640 c-7 -188 -7 -355 -1 -371 13 -33 236 -43 256 -11 29 47
-15 82 -101 82 l-88 0 0 110 0 110 90 0 c83 0 90 4 90 50 0 46 -7 50 -90 50
l-90 0 0 109 0 109 95 6 c159 10 137 84 -27 92 l-122 6 -12 -342z"/>
</g>
</svg>
